<svg width="136.104736" height="52.880005" viewBox="0 0 136.105 52.88" fill="none" xmlns="http://www.w3.org/2000/svg" xmlns:xlink="http://www.w3.org/1999/xlink">
	<desc>
			Created with Pixso.
	</desc>
	<defs/>
	<path id="лого" d="M2.64e-5 2.86e-6L2.64e-5 22.4L18.49 22.4L18.49 18.24L4.48 18.24L4.48 13.24L17.98 13.24L17.98 9.12L4.48 9.12L4.48 4.12L18.49 4.12L18.49 2.86e-6L2.64e-5 2.86e-6ZM26.37 6.4L22.37 6.4L22.37 28.8L26.85 28.8L26.85 20.38C28.48 21.98 30.79 22.88 33.44 22.88C38.79 22.88 42.75 19.26 42.75 14.36C42.75 9.53 38.75 5.92 33.44 5.92C30.75 5.92 28.42 6.84 26.79 8.44L26.37 6.4ZM54.7 18.78C51.66 18.78 49.39 16.99 49.39 14.43C49.39 11.84 51.63 9.98 54.7 9.98C57.1 9.98 58.89 10.97 59.63 12.6L64.27 12.6C63.41 8.51 59.63 5.92 54.7 5.92C49.07 5.92 44.91 9.53 44.91 14.43C44.91 19.26 49.1 22.88 54.7 22.88C59.66 22.88 63.47 20.22 64.3 16.16L59.66 16.16C58.93 17.82 57.13 18.78 54.7 18.78ZM32.48 9.85C35.84 9.85 38.27 11.74 38.27 14.36C38.27 16.99 35.91 18.91 32.48 18.91C29.12 18.91 26.85 17.05 26.85 14.36C26.85 11.71 29.12 9.85 32.48 9.85ZM2.64e-5 30L2.64e-5 52.4L4.48 52.4L4.48 43.24L16.73 43.24L16.73 52.4L21.21 52.4L21.21 30L16.73 30L16.73 39.12L4.48 39.12L4.48 30L2.64e-5 30ZM77.15 44.91L77.15 40.52L81.76 40.52L81.76 36.4L77.15 36.4L77.15 32.81L75.36 32.81L69.41 38.73L69.41 40.52L72.67 40.52L72.67 44.91C72.67 49.93 75.84 52.88 81.76 52.88L81.76 48.72C78.69 48.72 77.15 47.47 77.15 44.91ZM52.23 52.4L52.23 44.94C52.23 42.06 54.15 40.04 56.99 40.04C59.84 40.04 61.89 42.06 61.89 44.94L61.89 52.4L66.37 52.4L66.37 44.94C66.37 39.59 63.01 35.91 58.21 35.91C55.71 35.91 53.6 37.1 52.19 39.02L51.75 36.4L47.75 36.4L47.75 52.4L52.23 52.4ZM88.67 45.52L103.2 45.52C103.27 45.16 103.27 44.78 103.27 44.43C103.27 39.34 99.17 35.91 93.7 35.91C88.16 35.91 84.07 39.53 84.07 44.43C84.07 49.26 88.19 52.88 93.7 52.88C98.08 52.88 101.51 50.76 102.72 47.5L98.18 47.5C97.35 48.65 95.81 49.36 93.89 49.36C91.2 49.36 89.15 47.82 88.67 45.52ZM118.37 40.65L118.37 35.91C114.95 35.91 112.29 37.71 110.82 40.56L110.34 36.4L106.34 36.4L106.34 52.4L110.82 52.4L110.82 47.85C110.82 43.37 113.6 40.65 118.37 40.65ZM128.39 52.88C133.06 52.88 136.1 50.73 136.1 47.85C136.1 43.79 132.23 43.31 129.03 42.91C126.78 42.63 124.87 42.39 124.87 40.97C124.87 39.91 126.15 39.15 127.91 39.15C130.02 39.15 131.17 40.04 131.36 41.32L135.84 41.32C135.59 38 132.74 35.91 127.94 35.91C123.27 35.91 120.39 38.19 120.39 41C120.39 47.44 131.59 44.33 131.59 47.85C131.59 48.88 130.21 49.68 128.39 49.68C126.12 49.68 124.71 48.84 124.45 47.44L119.97 47.44C120.32 50.76 123.59 52.88 128.39 52.88ZM39.23 36.4L39.23 43.85C39.23 46.7 37.25 48.72 34.43 48.72C31.58 48.72 29.57 46.73 29.57 43.85L29.57 36.4L25.09 36.4L25.09 43.85C25.09 49.16 28.45 52.88 33.25 52.88C35.74 52.88 37.86 51.69 39.26 49.74L39.68 52.4L43.71 52.4L43.71 36.4L39.23 36.4ZM98.66 43.28L88.67 43.28C89.15 41.04 91.11 39.53 93.7 39.53C96.32 39.53 98.21 41 98.66 43.28Z" fill="#FFFFFF" fill-opacity="1.000000" fill-rule="evenodd"/>
</svg>
